<svg id="visual" viewBox="0 0 900 600" width="900" height="600" xmlns="http://www.w3.org/2000/svg" xmlns:xlink="http://www.w3.org/1999/xlink" version="1.1"><g stroke-width="1" stroke-linejoin="bevel"><path d="M416 317L494 425L511 317Z" fill="#002560" stroke="#002560"></path><path d="M416 317L414 439L494 425Z" fill="#002986" stroke="#002986"></path><path d="M494 425L585 391L511 317Z" fill="#001f45" stroke="#001f45"></path><path d="M416 317L337 419L414 439Z" fill="#002993" stroke="#002993"></path><path d="M585 391L579 280L511 317Z" fill="#00287a" stroke="#00287a"></path><path d="M511 317L407 198L416 317Z" fill="#002986" stroke="#002986"></path><path d="M465 161L407 198L511 317Z" fill="#002253" stroke="#002253"></path><path d="M416 317L289 278L337 419Z" fill="#00276d" stroke="#00276d"></path><path d="M312 478L390 534L414 439Z" fill="#002253" stroke="#002253"></path><path d="M414 439L536 536L494 425Z" fill="#00101c" stroke="#00101c"></path><path d="M494 425L602 509L585 391Z" fill="#001f45" stroke="#001f45"></path><path d="M390 534L536 536L414 439Z" fill="#00276d" stroke="#00276d"></path><path d="M227 461L312 478L337 419Z" fill="#00287a" stroke="#00287a"></path><path d="M337 419L312 478L414 439Z" fill="#00287a" stroke="#00287a"></path><path d="M407 198L289 278L416 317Z" fill="#001b37" stroke="#001b37"></path><path d="M536 536L602 509L494 425Z" fill="#002986" stroke="#002986"></path><path d="M682 262L660 236L579 280Z" fill="#002986" stroke="#002986"></path><path d="M562 170L465 161L511 317Z" fill="#002993" stroke="#002993"></path><path d="M579 280L562 170L511 317Z" fill="#001f45" stroke="#001f45"></path><path d="M682 262L579 280L585 391Z" fill="#00287a" stroke="#00287a"></path><path d="M579 280L660 236L562 170Z" fill="#002993" stroke="#002993"></path><path d="M390 534L517 600L536 536Z" fill="#04299f" stroke="#04299f"></path><path d="M536 536L563 600L602 509Z" fill="#00287a" stroke="#00287a"></path><path d="M735 395L682 262L585 391Z" fill="#001f45" stroke="#001f45"></path><path d="M289 278L222 372L337 419Z" fill="#002993" stroke="#002993"></path><path d="M266 600L390 600L390 534Z" fill="#00101c" stroke="#00101c"></path><path d="M390 534L390 600L517 600Z" fill="#00101c" stroke="#00101c"></path><path d="M266 600L390 534L312 478Z" fill="#00276d" stroke="#00276d"></path><path d="M222 372L227 461L337 419Z" fill="#001629" stroke="#001629"></path><path d="M517 600L563 600L536 536Z" fill="#00287a" stroke="#00287a"></path><path d="M298 101L295 169L407 198Z" fill="#001629" stroke="#001629"></path><path d="M407 198L295 169L289 278Z" fill="#002986" stroke="#002986"></path><path d="M289 278L196 325L222 372Z" fill="#00276d" stroke="#00276d"></path><path d="M229 188L196 325L289 278Z" fill="#002253" stroke="#002253"></path><path d="M91 419L126 492L227 461Z" fill="#00287a" stroke="#00287a"></path><path d="M722 495L585 391L602 509Z" fill="#002253" stroke="#002253"></path><path d="M722 495L735 395L585 391Z" fill="#00276d" stroke="#00276d"></path><path d="M562 170L506 92L465 161Z" fill="#00276d" stroke="#00276d"></path><path d="M465 161L426 64L407 198Z" fill="#04299f" stroke="#04299f"></path><path d="M567 87L506 92L562 170Z" fill="#002560" stroke="#002560"></path><path d="M683 600L722 495L602 509Z" fill="#00287a" stroke="#00287a"></path><path d="M295 169L229 188L289 278Z" fill="#002253" stroke="#002253"></path><path d="M298 101L229 188L295 169Z" fill="#001629" stroke="#001629"></path><path d="M734 110L567 87L562 170Z" fill="#00276d" stroke="#00276d"></path><path d="M734 110L562 170L660 236Z" fill="#001b37" stroke="#001b37"></path><path d="M470 0L426 64L506 92Z" fill="#001629" stroke="#001629"></path><path d="M506 92L426 64L465 161Z" fill="#00287a" stroke="#00287a"></path><path d="M227 461L266 600L312 478Z" fill="#04299f" stroke="#04299f"></path><path d="M426 64L298 101L407 198Z" fill="#002560" stroke="#002560"></path><path d="M563 600L683 600L602 509Z" fill="#04299f" stroke="#04299f"></path><path d="M227 461L235 600L266 600Z" fill="#04299f" stroke="#04299f"></path><path d="M126 492L235 600L227 461Z" fill="#002560" stroke="#002560"></path><path d="M828 428L798 323L735 395Z" fill="#001b37" stroke="#001b37"></path><path d="M735 395L798 323L682 262Z" fill="#002993" stroke="#002993"></path><path d="M682 262L780 230L660 236Z" fill="#001b37" stroke="#001b37"></path><path d="M828 428L735 395L722 495Z" fill="#00101c" stroke="#00101c"></path><path d="M798 323L780 230L682 262Z" fill="#002993" stroke="#002993"></path><path d="M91 419L222 372L196 325Z" fill="#002993" stroke="#002993"></path><path d="M91 419L227 461L222 372Z" fill="#002993" stroke="#002993"></path><path d="M298 101L181 135L229 188Z" fill="#00276d" stroke="#00276d"></path><path d="M88 172L83 331L196 325Z" fill="#00101c" stroke="#00101c"></path><path d="M567 87L470 0L506 92Z" fill="#002986" stroke="#002986"></path><path d="M426 64L332 0L298 101Z" fill="#001629" stroke="#001629"></path><path d="M298 101L225 0L181 135Z" fill="#002993" stroke="#002993"></path><path d="M596 0L470 0L567 87Z" fill="#001f45" stroke="#001f45"></path><path d="M831 487L828 428L722 495Z" fill="#00276d" stroke="#00276d"></path><path d="M798 323L900 215L780 230Z" fill="#00287a" stroke="#00287a"></path><path d="M470 0L397 0L426 64Z" fill="#00101c" stroke="#00101c"></path><path d="M780 230L734 110L660 236Z" fill="#001629" stroke="#001629"></path><path d="M83 331L91 419L196 325Z" fill="#001f45" stroke="#001f45"></path><path d="M88 172L196 325L229 188Z" fill="#00287a" stroke="#00287a"></path><path d="M774 600L831 487L722 495Z" fill="#002560" stroke="#002560"></path><path d="M397 0L332 0L426 64Z" fill="#001f45" stroke="#001f45"></path><path d="M679 0L596 0L567 87Z" fill="#00276d" stroke="#00276d"></path><path d="M683 600L774 600L722 495Z" fill="#001f45" stroke="#001f45"></path><path d="M0 539L125 600L126 492Z" fill="#00276d" stroke="#00276d"></path><path d="M126 492L125 600L235 600Z" fill="#00276d" stroke="#00276d"></path><path d="M181 135L88 172L229 188Z" fill="#001f45" stroke="#001f45"></path><path d="M105 92L88 172L181 135Z" fill="#001629" stroke="#001629"></path><path d="M734 110L679 0L567 87Z" fill="#00276d" stroke="#00276d"></path><path d="M332 0L225 0L298 101Z" fill="#002986" stroke="#002986"></path><path d="M900 513L900 368L828 428Z" fill="#04299f" stroke="#04299f"></path><path d="M828 428L900 368L798 323Z" fill="#04299f" stroke="#04299f"></path><path d="M780 230L833 82L734 110Z" fill="#002560" stroke="#002560"></path><path d="M734 110L830 0L679 0Z" fill="#002986" stroke="#002986"></path><path d="M900 513L828 428L831 487Z" fill="#00287a" stroke="#00287a"></path><path d="M900 368L900 321L798 323Z" fill="#001629" stroke="#001629"></path><path d="M225 0L105 92L181 135Z" fill="#002253" stroke="#002253"></path><path d="M900 600L900 513L831 487Z" fill="#00287a" stroke="#00287a"></path><path d="M900 321L900 215L798 323Z" fill="#002253" stroke="#002253"></path><path d="M900 215L833 82L780 230Z" fill="#00101c" stroke="#00101c"></path><path d="M83 331L0 435L91 419Z" fill="#002560" stroke="#002560"></path><path d="M91 419L0 435L126 492Z" fill="#04299f" stroke="#04299f"></path><path d="M0 286L0 435L83 331Z" fill="#002253" stroke="#002253"></path><path d="M0 286L83 331L0 233Z" fill="#002560" stroke="#002560"></path><path d="M0 233L83 331L88 172Z" fill="#001b37" stroke="#001b37"></path><path d="M0 128L0 233L88 172Z" fill="#001629" stroke="#001629"></path><path d="M0 435L0 539L126 492Z" fill="#002560" stroke="#002560"></path><path d="M774 600L900 600L831 487Z" fill="#001b37" stroke="#001b37"></path><path d="M900 215L900 109L833 82Z" fill="#00287a" stroke="#00287a"></path><path d="M833 82L830 0L734 110Z" fill="#00101c" stroke="#00101c"></path><path d="M225 0L97 0L105 92Z" fill="#002253" stroke="#002253"></path><path d="M105 92L0 128L88 172Z" fill="#002560" stroke="#002560"></path><path d="M900 0L830 0L833 82Z" fill="#002993" stroke="#002993"></path><path d="M0 539L0 600L125 600Z" fill="#00287a" stroke="#00287a"></path><path d="M0 0L0 128L105 92Z" fill="#002253" stroke="#002253"></path><path d="M900 109L900 0L833 82Z" fill="#001629" stroke="#001629"></path><path d="M97 0L0 0L105 92Z" fill="#001b37" stroke="#001b37"></path></g></svg>